<svg height="300.000000pt"
     preserveAspectRatio="xMidYMid meet" viewBox="0 0 300.000000 300.000000" width="300.000000pt"
     xmlns="http://www.w3.org/2000/svg">
    <metadata>
        Created by potrace 1.10, written by Peter Selinger 2001-2011
    </metadata>
    <g fill="#000000"
       stroke="none" transform="translate(0.000000,300.000000) scale(0.100000,-0.100000)">
        <path d="M1500 2745 c14 -17 13 -17 -9 -10 -14 4 -21 3 -17 -3 3 -5 -14 -12
-40 -16 -25 -3 -58 -15 -73 -26 -16 -10 -48 -21 -72 -22 -24 -2 -50 -9 -57
-15 -7 -7 -22 -13 -32 -13 -10 0 -22 -4 -25 -10 -3 -5 -15 -10 -26 -10 -11 0
-17 -4 -14 -10 3 -5 -6 -12 -21 -16 -19 -5 -22 -9 -12 -15 10 -7 10 -9 -2 -9
-24 -1 -107 -60 -84 -60 16 -1 14 -5 -11 -25 -16 -14 -39 -25 -50 -26 -20 0
-20 0 0 -8 19 -8 19 -8 -3 -22 -12 -8 -22 -17 -22 -22 0 -9 -14 -27 -45 -58
-11 -11 -20 -24 -20 -29 0 -5 -9 -16 -20 -25 -11 -9 -14 -14 -7 -10 19 10 14
-6 -10 -33 l-23 -25 23 12 c26 14 28 8 5 -18 -9 -11 -18 -30 -19 -43 -8 -52
-12 -74 -19 -93 -7 -20 -7 -20 10 0 17 19 17 18 11 -27 -4 -32 -2 -48 7 -51 7
-2 12 -22 11 -52 -1 -43 0 -45 11 -24 12 21 13 19 29 -34 9 -31 19 -57 22 -57
2 0 8 10 13 22 7 19 11 14 32 -40 16 -41 26 -56 30 -45 4 12 11 4 27 -28 12
-24 22 -37 22 -29 1 12 3 12 14 -2 7 -10 16 -15 19 -11 4 3 7 2 7 -3 0 -6 6
-19 14 -29 13 -18 14 -18 10 10 l-5 30 15 -25 c8 -14 17 -24 20 -22 4 1 14 -2
24 -7 16 -9 16 -10 -2 -17 -11 -4 -45 -12 -75 -18 l-56 -11 -42 -85 c-32 -64
-42 -97 -43 -135 0 -27 -7 -77 -14 -110 -35 -152 -84 -384 -90 -427 -7 -46 -4
-54 80 -215 48 -93 95 -180 106 -195 10 -14 18 -33 18 -41 0 -8 7 -17 15 -21
8 -3 15 -15 15 -26 0 -21 -16 -28 -22 -10 -2 6 -29 17 -60 24 -32 7 -65 19
-73 26 -8 7 -15 8 -15 3 0 -20 36 -41 82 -47 47 -7 76 -26 41 -26 -17 -1 -17
-1 1 -11 14 -9 21 -8 27 2 8 11 14 9 30 -10 11 -14 18 -33 16 -43 -3 -9 1 -22
9 -29 15 -12 18 -7 14 25 -1 13 3 17 14 13 9 -4 16 -1 16 6 1 17 50 -41 50
-59 0 -12 3 -12 20 -2 31 20 39 0 46 -115 4 -59 10 -107 14 -107 4 0 6 47 3
105 -4 76 -2 105 7 105 6 0 9 4 6 8 -5 8 35 116 47 128 2 3 24 -30 47 -73 62
-117 67 -122 130 -128 l55 -5 66 102 c36 57 74 124 85 150 13 33 27 51 44 56
l25 9 -28 6 c-30 8 -34 19 -13 36 10 8 16 9 21 1 3 -5 18 -10 33 -10 47 0 51
-9 58 -132 6 -105 5 -117 -12 -134 -11 -11 -18 -27 -16 -37 2 -10 -8 -33 -22
-52 -14 -18 -26 -37 -26 -41 0 -4 -6 -12 -14 -18 -16 -13 -32 -76 -19 -76 5 0
16 9 25 19 12 14 13 21 5 25 -8 3 -7 8 4 15 9 6 20 22 23 36 3 13 19 31 34 39
18 10 21 15 10 16 -15 0 -14 7 8 61 21 52 24 71 19 128 -3 36 -8 77 -11 89 -3
17 -1 23 8 20 17 -6 39 -132 31 -178 -3 -19 -14 -52 -25 -73 -10 -20 -14 -37
-9 -37 4 0 19 23 31 52 19 45 21 62 15 131 -4 52 -3 83 5 92 6 7 24 40 40 74
21 42 36 61 48 61 17 0 20 -14 31 -115 11 -116 20 -148 53 -197 12 -17 15 -29
8 -33 -5 -3 -10 -14 -10 -24 0 -25 -23 -44 -37 -30 -8 8 -12 -3 -15 -36 -2
-33 1 -49 11 -54 9 -6 10 -10 2 -15 -6 -4 -11 -2 -11 5 0 19 -8 7 -25 -37 -12
-30 -12 -35 -2 -21 17 21 39 23 31 2 -4 -9 0 -15 9 -15 16 0 47 82 68 178 11
53 11 53 35 38 13 -9 26 -16 29 -16 3 0 5 26 5 58 0 31 5 75 11 97 6 22 11 65
12 95 3 115 -12 457 -22 509 -6 30 -16 126 -21 215 -12 187 -27 301 -45 336
-8 15 -49 45 -99 74 -47 26 -88 51 -90 55 -3 4 0 13 5 21 8 11 12 12 15 3 6
-13 44 19 44 38 0 5 5 7 10 4 6 -3 10 -2 10 4 0 6 7 8 15 5 12 -5 12 0 5 26
-13 44 -18 47 -25 17 -4 -16 -12 -24 -20 -21 -7 3 -16 -4 -20 -15 -3 -12 -11
-19 -16 -16 -5 4 -12 -1 -15 -10 -6 -13 -8 -14 -15 -3 -7 10 -9 8 -9 -6 0 -16
-2 -17 -17 -5 -15 13 -16 11 -9 -13 8 -34 -6 -37 -23 -5 -11 21 -11 21 -6 -5
3 -16 1 -28 -5 -28 -5 0 -10 -7 -10 -16 0 -13 3 -14 13 -5 8 6 17 8 20 4 11
-11 8 -105 -3 -98 -5 3 -10 0 -10 -8 0 -22 12 -28 25 -11 17 24 43 -108 56
-286 15 -201 15 -205 23 -219 5 -7 5 -24 2 -37 -4 -16 -3 -23 3 -20 18 11 37
-150 20 -170 -9 -11 -8 -18 5 -32 10 -11 16 -34 15 -58 -1 -21 0 -46 2 -54 3
-9 -4 -16 -16 -18 -19 -3 -22 8 -43 135 -12 76 -26 190 -32 253 -6 63 -12 126
-15 140 -2 14 -7 54 -10 90 -3 36 -15 99 -26 140 -12 44 -19 97 -17 130 3 56
-18 110 -42 110 -6 0 -10 7 -10 15 0 8 9 15 20 15 13 0 20 7 20 19 0 27 -17
35 -29 14 -6 -10 -11 -14 -11 -9 0 6 -7 1 -16 -10 -14 -17 -15 -17 -10 -1 3
11 2 16 -4 12 -13 -8 -13 -42 0 -48 6 -3 5 -4 -2 -3 -7 1 -17 22 -21 46 l-9
43 -24 -29 c-27 -33 -31 -56 -9 -48 8 4 15 2 15 -2 0 -16 -44 -114 -51 -114
-4 0 -19 14 -32 30 -14 17 -28 30 -31 30 -11 0 65 -98 80 -104 24 -9 29 -7 16
6 -14 14 -16 48 -3 48 5 0 20 -14 32 -31 19 -27 25 -60 40 -203 11 -103 15
-174 9 -180 -5 -5 -5 -16 -1 -25 5 -9 9 -38 9 -66 1 -27 6 -90 11 -140 14
-120 14 -188 -1 -204 -11 -10 -10 -12 1 -9 10 2 17 -9 21 -34 l7 -38 -49 0
c-50 0 -69 19 -20 21 21 1 22 2 7 6 -29 8 -31 14 -24 95 3 40 0 134 -8 208
-18 183 -20 202 -39 325 -10 60 -55 219 -75 264 -11 25 -22 53 -24 62 -4 19
-82 106 -89 99 -2 -3 13 -31 35 -62 44 -65 50 -84 19 -68 -27 14 -100 9 -100
-8 0 -9 16 -12 53 -11 29 1 62 -3 74 -9 37 -20 78 -175 109 -409 18 -141 15
-181 -8 -108 -58 180 -133 383 -150 409 -12 17 -41 54 -65 83 -27 32 -41 57
-37 67 4 11 1 16 -10 16 -9 0 -16 -4 -16 -9 0 -5 -28 -2 -62 7 -52 13 -58 17
-38 22 16 4 21 8 13 13 -7 4 -24 5 -38 1 -21 -5 -25 -3 -25 16 0 11 4 19 9 16
12 -8 22 34 12 51 -5 10 -11 1 -20 -27 -8 -29 -17 -40 -29 -38 -25 4 -52 30
-52 51 0 10 -4 15 -10 12 -12 -8 -60 42 -61 64 0 10 -2 11 -6 4 -3 -9 -10 -10
-24 -3 -10 6 -19 7 -19 3 0 -4 -5 0 -11 10 -6 9 -14 15 -20 12 -5 -4 -9 0 -9
9 0 8 -18 34 -40 57 -22 24 -40 51 -40 61 0 11 -10 20 -26 24 -22 6 -25 11
-19 33 4 19 3 22 -5 11 -8 -12 -10 -9 -10 13 0 19 -4 26 -12 21 -8 -5 -10 10
-5 57 6 59 5 62 -8 39 l-14 -25 -1 28 c0 15 9 46 20 69 l20 41 -26 -24 -26
-24 25 51 c14 27 33 56 41 63 9 8 16 18 16 24 0 5 -9 2 -20 -8 -23 -20 -26
-14 -8 18 16 31 140 177 149 177 4 0 14 12 21 27 7 15 38 41 68 59 30 18 60
37 65 41 13 12 110 40 163 48 23 4 49 13 56 21 8 8 24 14 36 14 12 0 19 4 16
9 -6 9 14 12 117 14 66 2 79 8 55 24 -17 10 -78 11 -78 0 0 -4 -15 0 -32 9
-32 16 -32 16 -18 -1z m-310 -1136 l25 -21 -34 6 c-40 7 -45 11 -36 25 9 15
16 14 45 -10z m743 -18 c18 -31 19 -92 0 -98 -16 -6 -38 70 -34 115 2 20 16
14 34 -17z m-842 -7 c18 -9 63 -17 107 -18 91 -4 198 -31 229 -59 44 -40 121
-163 138 -222 23 -82 88 -267 119 -340 34 -83 48 -145 31 -145 -7 0 -16 -7
-19 -16 -8 -20 12 -47 27 -37 7 4 8 -5 4 -27 -4 -18 -7 -47 -8 -64 0 -17 -3
-25 -6 -18 -7 17 -42 15 -50 -4 -3 -8 2 -23 11 -32 16 -16 18 -16 33 3 14 18
15 15 9 -42 -4 -35 -14 -86 -22 -114 -19 -63 -130 -239 -152 -239 -43 0 -131
87 -192 189 -27 46 -74 162 -67 166 1 1 17 -2 36 -7 19 -5 56 -32 88 -64 64
-64 77 -70 34 -15 -41 52 -39 58 7 22 20 -16 52 -32 70 -36 32 -7 33 -6 23 14
-6 11 -28 25 -49 31 l-37 12 1 84 2 84 -97 2 c-53 1 -108 2 -123 1 -23 -1 -28
3 -28 22 0 13 3 30 6 39 5 14 8 14 29 0 13 -9 32 -14 42 -11 14 3 11 7 -14 18
-34 14 -52 49 -25 49 14 0 14 1 -1 13 -14 10 -14 19 -5 59 11 48 5 75 -12 48
-7 -12 -10 -11 -15 5 -3 11 -15 37 -26 58 -14 25 -18 48 -14 64 6 24 7 24 24
9 24 -22 34 -20 21 5 -9 16 -8 24 2 37 49 58 73 141 46 158 -7 5 -9 2 -5 -8 6
-17 -31 -128 -43 -128 -4 0 -4 19 1 43 22 115 0 229 -68 345 -36 63 -41 42 -6
-25 66 -126 82 -235 48 -323 -9 -25 -30 -84 -47 -131 -28 -80 -33 -87 -61 -93
l-31 -6 22 -20 c12 -12 22 -25 22 -30 0 -13 -1 -13 -38 6 -19 9 -50 14 -79 12
l-48 -3 40 -8 c22 -5 51 -11 65 -15 24 -6 23 -6 -7 -10 -40 -4 -44 -24 -5 -22
53 4 67 0 78 -24 11 -23 10 -24 -14 -15 -13 5 -27 7 -31 4 -7 -8 20 -25 40
-25 18 0 62 -61 96 -133 13 -27 32 -56 42 -65 11 -10 29 -42 41 -72 l20 -55
-22 -14 c-13 -8 -55 -47 -93 -88 -66 -68 -71 -71 -83 -53 -6 11 -12 29 -12 39
0 11 -5 23 -10 26 -6 4 -17 21 -25 38 -8 18 -29 57 -46 87 -17 30 -48 87 -68
125 -21 39 -48 87 -60 107 -29 48 -15 56 61 33 39 -11 62 -13 79 -6 23 10 23
10 -6 10 -50 1 -176 34 -172 45 5 16 88 56 115 56 13 0 21 4 18 9 -8 12 -84 2
-118 -16 -16 -7 -28 -11 -28 -9 0 21 68 60 140 82 47 14 90 27 97 29 11 4 53
75 53 90 0 3 -19 -8 -42 -25 -22 -16 -45 -30 -49 -30 -4 0 -20 -5 -34 -10 -24
-9 -25 -12 -14 -27 13 -15 11 -16 -18 -10 -27 5 -40 0 -79 -29 -42 -32 -45
-33 -39 -12 18 57 50 100 147 193 56 56 120 114 140 130 36 27 56 60 44 72 -6
6 -225 -212 -284 -283 -28 -34 -32 -36 -26 -14 9 38 93 156 144 204 97 90 99
105 5 35 -60 -44 -76 -61 -110 -119 -22 -39 -25 -41 -19 -15 12 53 30 89 73
140 52 63 53 83 1 28 -22 -23 -40 -38 -40 -32 0 23 32 69 62 90 47 32 132 118
126 125 -11 10 -46 -15 -83 -61 -21 -24 -50 -51 -65 -59 l-29 -14 12 27 c6 14
15 32 20 39 7 9 5 11 -7 6 -29 -11 -17 9 36 63 57 58 61 82 5 34 -19 -17 -37
-31 -40 -31 -12 0 36 71 55 81 11 6 17 16 14 24 -11 29 20 33 65 9z m713 -7
c11 -8 20 -31 23 -59 5 -41 3 -46 -17 -51 -32 -8 -60 9 -60 38 0 18 -4 23 -15
19 -16 -6 -16 13 0 49 9 20 44 22 69 4z m284 -147 c2 -52 0 -110 -3 -127 -5
-28 -10 -33 -34 -33 l-28 0 -2 83 c-2 94 -8 125 -28 148 -11 13 -11 22 -2 43
l12 26 41 -23 41 -22 3 -95z m-97 53 c11 -12 15 -76 17 -287 2 -149 8 -275 13
-281 6 -5 7 9 3 37 -4 26 -3 94 1 152 6 89 10 106 23 107 12 0 9 3 -6 10 -30
12 -24 31 12 36 l27 4 -7 -158 c-10 -216 -7 -316 10 -356 16 -41 15 -162 -3
-194 -14 -27 -4 -31 14 -6 7 9 16 13 21 10 20 -12 56 -100 56 -135 0 -39 -13
-175 -17 -180 -1 -1 -14 2 -27 9 -55 25 -79 113 -93 349 -7 111 -18 208 -45
380 -11 69 -26 193 -35 275 -8 83 -18 160 -21 171 -6 21 20 74 36 74 4 0 14
-7 21 -17z m148 -288 c6 -110 14 -212 17 -227 5 -24 3 -28 -15 -28 -29 0 -26
-14 7 -39 l27 -20 -40 -2 -40 -1 31 -9 c17 -5 38 -16 45 -26 13 -15 12 -16 -9
-10 -23 5 -23 5 -6 -14 9 -10 14 -22 10 -27 -5 -4 -15 3 -25 16 -9 13 -26 34
-38 48 -15 18 -20 35 -18 57 15 118 25 239 24 282 0 28 0 100 1 160 3 158 16
87 29 -160z m-342 220 c-3 -19 -2 -37 3 -40 11 -7 21 39 13 61 -4 11 -3 15 5
10 24 -15 47 -125 72 -351 22 -204 33 -285 50 -385 9 -58 19 -110 21 -115 5
-14 -44 -105 -56 -104 -5 0 -22 15 -37 33 -24 29 -27 43 -32 136 -4 57 -10
154 -16 215 -5 60 -12 160 -15 220 -3 61 -10 158 -16 217 -11 100 -9 138 7
138 4 0 4 -16 1 -35z m-622 -452 c3 -21 8 -49 11 -63 18 -86 15 -160 -7 -160
-13 0 -40 62 -49 114 -8 38 16 146 32 146 4 0 10 -17 13 -37z m962 -168 c43
-20 55 -35 29 -35 -23 0 -29 -20 -13 -38 12 -13 15 -40 15 -104 0 -47 3 -91 7
-97 3 -6 4 -11 1 -11 -3 0 -18 19 -35 43 -25 37 -28 49 -24 89 4 32 -1 64 -16
107 -11 34 -21 64 -21 67 0 6 0 7 57 -21z m-697 -184 c0 -37 -4 -61 -12 -63
-14 -5 -114 34 -131 51 -6 6 -15 11 -21 11 -12 0 -46 30 -46 41 0 12 29 17
123 18 l87 1 0 -59z m366 -65 c21 -22 17 -26 -24 -26 -43 0 -53 6 -45 26 7 18
50 18 69 0z m-491 -127 c4 -5 -15 -33 -42 -62 -26 -29 -55 -62 -63 -75 -14
-22 -16 -22 -38 -6 l-24 17 68 68 c68 68 87 79 99 58z m-49 -144 c-14 -33 -36
-41 -36 -13 0 13 41 60 47 54 2 -2 -3 -20 -11 -41z m231 -74 c38 -13 49 -21
43 -31 -15 -24 -119 13 -120 43 0 11 20 8 77 -12z"/>
        <path d="M1112 1134 c-34 -25 -62 -48 -62 -50 0 -5 50 17 72 31 17 11 63 65
56 65 -3 0 -32 -21 -66 -46z"/>
        <path d="M965 1041 c-83 -48 -85 -63 -3 -30 40 17 80 37 88 45 27 26 -31 16
-85 -15z"/>
        <path d="M900 829 c-25 -6 -25 -6 5 -13 17 -4 44 -11 61 -16 40 -13 77 -13 69
0 -3 6 -17 10 -30 10 -32 0 -41 17 -13 23 13 2 3 4 -22 4 -25 -1 -56 -4 -70
-8z"/>
        <path d="M1324 772 c15 -16 25 -35 22 -41 -4 -7 1 -11 13 -11 10 0 28 -3 38
-7 29 -11 2 17 -54 57 l-48 33 29 -31z"/>
        <path d="M1450 748 c0 -11 40 -69 67 -96 7 -8 18 -12 24 -10 6 2 -10 29 -36
61 -48 59 -55 65 -55 45z"/>
        <path d="M909 733 c12 -10 43 -37 69 -61 59 -53 111 -70 147 -46 20 13 23 19
13 25 -8 5 -14 3 -16 -5 -5 -23 -87 3 -127 41 -19 18 -41 33 -49 33 -7 0 -19
7 -26 15 -7 8 -17 15 -23 15 -6 0 -1 -8 12 -17z"/>
        <path d="M1080 725 c0 -9 62 -36 73 -32 7 2 -5 12 -27 21 -42 17 -46 18 -46
11z"/>
        <path d="M1139 606 c-26 -16 -29 -22 -16 -24 21 -4 87 17 87 28 0 18 -40 16
-71 -4z"/>
        <path d="M1049 551 c13 -10 33 -16 43 -13 16 4 18 1 12 -24 l-7 -29 32 29 c17
17 31 34 31 38 0 5 -20 6 -44 3 -28 -5 -46 -3 -50 4 -4 6 -15 11 -24 11 -13 0
-12 -4 7 -19z"/>
        <path d="M2105 499 c-7 -31 -9 -73 -7 -131 2 -35 6 -46 15 -42 10 3 13 28 11
95 -2 92 -9 120 -19 78z"/>
        <path d="M1821 1358 c0 -27 4 -48 9 -48 11 0 11 21 0 65 -7 27 -8 25 -9 -17z"/>
        <path d="M1647 2731 c5 -21 28 -31 86 -37 40 -5 42 -3 27 27 -10 17 -13 18
-26 5 -13 -14 -19 -13 -50 4 -43 24 -43 24 -37 1z"/>
        <path d="M1780 2720 c0 -21 17 -46 26 -37 4 4 13 -1 20 -11 7 -9 16 -13 20 -9
12 11 -10 42 -30 42 -9 0 -21 7 -26 15 -9 13 -10 13 -10 0z"/>
        <path d="M1862 2675 c-11 -24 -2 -42 17 -30 5 3 17 -2 26 -12 16 -16 18 -16
32 3 12 17 12 19 -4 22 -53 8 -62 13 -57 27 10 25 -2 17 -14 -10z"/>
        <path d="M1570 2666 c0 -12 47 -38 75 -41 19 -1 35 -16 29 -27 -4 -6 1 -6 14
1 16 8 24 8 36 -4 8 -8 18 -15 22 -15 4 0 16 -8 26 -17 18 -16 18 -16 12 0 -3
9 -10 17 -14 17 -4 0 -28 19 -54 41 -26 23 -50 39 -53 36 -3 -4 -14 -2 -24 4
-15 8 -17 6 -12 -7 4 -12 3 -15 -5 -10 -7 4 -12 14 -12 22 0 8 -9 14 -20 14
-11 0 -20 -6 -20 -14z"/>
        <path d="M1396 2642 c-3 -5 18 -13 47 -19 51 -10 51 -10 28 8 -24 19 -66 25
-75 11z"/>
        <path d="M1520 2638 c-18 -7 -21 -11 -11 -17 7 -5 12 -12 11 -17 -1 -5 3 -10
9 -12 6 -2 8 3 5 11 -4 11 2 16 23 19 26 3 27 4 8 14 -13 8 -28 9 -45 2z"/>
        <path d="M1730 2640 c0 -6 10 -15 23 -20 33 -14 55 -34 67 -61 10 -23 10 -23
5 4 l-6 28 32 -16 c40 -21 49 -12 19 20 -15 16 -26 21 -30 14 -5 -7 -13 -5
-24 6 -9 9 -16 13 -16 8 0 -4 -5 0 -11 10 -5 9 -15 17 -20 17 -6 0 -7 -5 -3
-11 4 -8 0 -8 -15 0 -14 8 -21 8 -21 1z"/>
        <path d="M1400 2611 c0 -5 -19 -12 -42 -15 -24 -4 -69 -19 -100 -35 -32 -15
-58 -24 -58 -19 0 5 -17 0 -37 -11 -58 -30 -124 -81 -118 -91 3 -5 -14 -24
-39 -42 -39 -29 -66 -64 -66 -85 0 -4 11 4 25 17 43 40 35 17 -11 -33 -47 -52
-52 -59 -30 -51 11 4 13 0 9 -18 -3 -13 -3 -20 0 -17 4 3 8 14 10 25 1 10 18
42 37 69 19 28 35 57 35 65 0 8 32 39 70 69 39 30 62 51 52 48 -10 -4 -16 -3
-13 2 8 13 56 20 56 8 0 -6 8 -3 18 5 16 14 115 68 126 68 6 0 1 -21 -14 -55
-29 -63 -25 -290 11 -574 5 -42 5 -79 0 -85 -4 -6 -11 -42 -14 -81 -3 -38 -9
-79 -13 -90 -7 -18 -6 -18 9 -6 9 7 17 24 17 37 0 12 5 26 10 29 6 3 7 17 4
31 -3 13 -2 30 3 37 17 20 23 60 12 74 -6 6 -9 41 -7 77 1 35 0 62 -3 60 -4
-2 -9 13 -13 34 -4 27 -2 40 9 48 20 15 19 24 -2 24 -13 0 -10 6 12 20 l30 21
-27 -7 c-31 -7 -35 0 -13 23 10 10 34 15 68 15 29 0 58 5 64 10 7 6 27 7 45 3
79 -16 145 -17 161 -1 24 24 46 21 39 -6 -5 -21 -4 -22 12 -9 9 8 19 11 23 8
10 -11 -87 -47 -127 -47 -21 0 -61 12 -90 26 -28 14 -54 23 -57 20 -4 -3 -1
-6 6 -6 7 0 9 -4 6 -10 -3 -5 0 -10 7 -10 7 -1 2 -7 -11 -14 -17 -9 -20 -15
-10 -18 8 -3 21 0 30 5 12 7 26 6 50 -6 19 -8 46 -19 62 -22 15 -4 27 -11 27
-15 0 -21 97 7 128 37 7 7 21 13 30 14 9 0 12 3 5 5 -6 3 -32 -5 -57 -17 -63
-29 -67 -19 -8 22 48 33 49 34 41 74 -4 22 -11 48 -14 58 -4 10 -3 17 4 17 6
0 11 10 11 23 l1 22 21 -25 21 -25 -9 25 c-4 14 -8 35 -9 47 0 12 -4 21 -10
20 -5 -1 -9 6 -8 17 0 10 -5 32 -13 50 -15 36 -19 20 -4 -19 9 -24 8 -25 -10
-15 -11 6 -20 17 -20 24 0 7 -10 21 -22 32 -23 19 -23 19 -5 -2 24 -29 21 -35
-10 -19 -17 9 -29 11 -31 5 -2 -6 -17 -10 -33 -10 -16 0 -29 -4 -29 -10 0 -10
23 -14 69 -12 23 1 79 -24 92 -41 10 -13 -3 -68 -15 -64 -6 3 -19 -3 -29 -11
-16 -15 -17 -14 -11 3 6 16 4 17 -17 11 -13 -4 -36 -9 -51 -11 -14 -2 -32 -6
-39 -10 -8 -5 -10 -4 -5 3 9 15 1 15 -25 2 -42 -23 -20 -33 57 -27 52 5 73 4
68 -4 -4 -7 4 -10 21 -7 20 2 29 -2 30 -13 2 -13 -5 -16 -34 -14 -20 1 -25 0
-11 -2 67 -12 26 -19 -118 -20 -133 -2 -197 -6 -197 -13 0 -1 -7 -3 -15 -5 -8
-2 -25 -7 -37 -11 -21 -6 -23 -3 -25 32 -2 60 2 88 15 96 9 6 9 8 -1 8 -19 0
-3 81 22 108 15 17 16 21 5 17 -12 -4 -16 -1 -15 13 1 20 24 47 65 75 l26 18
-30 -7 -30 -7 29 26 c21 20 25 27 12 27 -9 0 -16 -4 -16 -9z"/>
        <path d="M1974 2585 c11 -8 25 -15 31 -15 45 0 166 -91 157 -118 -2 -7 1 -12
7 -12 6 0 11 -8 11 -18 0 -10 3 -22 7 -26 4 -3 8 -19 9 -34 2 -15 8 -58 13
-97 6 -38 14 -97 19 -130 4 -33 11 -65 15 -71 3 -6 9 -40 12 -74 4 -35 8 -67
11 -71 2 -4 -1 -9 -7 -11 -6 -2 -15 -30 -19 -63 -21 -141 -35 -195 -52 -195
-14 0 -4 209 11 237 17 32 24 130 10 139 -9 5 -10 1 -7 -14 4 -12 2 -22 -4
-22 -6 0 -8 -9 -5 -20 3 -11 1 -20 -3 -20 -4 0 -6 -10 -2 -22 5 -21 4 -22 -12
-9 -16 13 -17 12 -11 -15 5 -22 4 -25 -4 -14 -9 13 -11 13 -11 0 0 -9 -9 -22
-20 -30 -11 -8 -20 -20 -20 -27 0 -7 -7 -13 -15 -13 -9 0 -15 -9 -16 -22 0
-22 -1 -22 -9 -3 -5 11 -9 14 -9 6 -1 -8 -8 -19 -16 -25 -14 -10 -14 -14 3
-32 11 -11 23 -31 27 -45 4 -13 14 -28 21 -34 7 -5 14 -19 16 -30 2 -14 10
-19 26 -17 17 3 22 -2 23 -20 0 -13 3 -17 6 -10 4 10 8 9 19 -5 12 -16 12 -16
7 6 -5 19 -3 23 9 18 13 -4 17 4 23 39 3 24 10 44 15 44 10 0 18 36 24 105 2
28 9 77 14 110 9 49 10 110 2 110 -1 0 -3 8 -6 18 -6 26 -10 41 -17 57 -7 20
-18 95 -21 150 -2 25 -7 54 -11 64 -5 11 -9 33 -10 50 -3 61 -68 186 -97 186
-6 0 -18 9 -27 19 -17 19 -79 41 -116 41 -20 -1 -20 -1 -1 -15z m187 -762 c0
-5 2 -28 4 -53 3 -32 1 -40 -6 -30 -8 11 -9 8 -5 -12 3 -14 3 -34 0 -42 -5
-14 -9 -13 -29 6 -12 13 -28 34 -35 47 -11 21 -10 26 11 42 13 10 27 19 32 19
4 0 7 7 7 15 0 15 20 22 21 8z"/>
        <path d="M1917 2553 c11 -29 31 -45 39 -32 4 8 9 7 15 -2 5 -8 9 -9 9 -3 0 9
-53 54 -64 54 -3 0 -2 -8 1 -17z"/>
        <path d="M2049 2516 c6 -8 11 -18 10 -22 -3 -14 18 -61 31 -69 7 -4 9 -18 6
-31 -4 -13 -2 -24 3 -24 11 0 21 -40 28 -115 4 -53 3 -58 -11 -46 -9 7 -16 11
-16 7 0 -3 -12 -1 -26 4 -18 7 -23 7 -18 -2 5 -8 0 -9 -17 -5 -13 4 -41 7 -62
7 -23 0 -36 4 -32 10 3 6 1 10 -4 10 -14 0 -14 27 -1 35 19 12 72 14 91 5 10
-6 20 -7 23 -2 9 15 -20 39 -55 45 -29 4 -42 1 -59 -15 -51 -48 -45 -102 17
-141 77 -48 75 -48 123 -16 32 22 46 26 49 17 2 -7 12 -20 22 -29 10 -9 16
-19 13 -22 -3 -3 -1 -12 5 -19 6 -7 20 -24 30 -38 28 -37 33 -21 9 30 -17 38
-28 97 -52 275 -1 11 -7 29 -13 40 -6 11 -11 25 -12 30 0 6 -7 17 -15 27 -8 9
-12 18 -10 21 6 5 -49 47 -61 47 -4 0 -2 -6 4 -14z m61 -332 c0 -2 -16 -11
-35 -20 -38 -18 -79 -13 -88 10 -5 12 7 14 59 14 35 -1 64 -3 64 -4z"/>
        <path d="M1968 2464 c-3 -3 -18 -6 -34 -7 -25 -2 -31 -9 -47 -54 -18 -51 -18
-52 3 -73 11 -11 22 -20 24 -20 3 0 3 21 1 48 -1 26 1 52 7 59 5 7 7 17 4 22
-10 15 52 -5 70 -23 8 -9 24 -16 33 -16 10 0 26 -10 35 -22 l16 -23 -9 25 c-7
21 -34 44 -78 66 -7 3 -10 10 -7 15 6 10 -9 13 -18 3z"/>
        <path d="M1861 2116 c-44 -30 -40 -57 15 -105 26 -23 53 -41 61 -41 21 0 13
-67 -10 -88 -16 -14 -37 -17 -111 -16 -82 1 -100 5 -159 33 -65 31 -117 79
-117 107 0 8 11 25 25 38 20 18 22 25 11 29 -20 8 -54 -3 -60 -19 -3 -8 -14
-14 -24 -14 -10 0 -18 -8 -18 -17 -1 -10 -4 -26 -8 -35 -6 -13 -3 -15 13 -11
14 4 35 -7 68 -34 55 -45 110 -76 168 -94 56 -17 183 -14 215 6 6 4 24 -1 42
-9 41 -21 47 -20 89 8 23 16 40 38 49 65 7 23 16 41 20 41 10 0 19 61 13 78
-3 6 -13 12 -22 12 -13 0 -16 -11 -16 -53 0 -90 -54 -149 -120 -133 -19 5 -25
13 -25 35 0 43 8 58 45 81 21 13 38 34 46 57 10 33 9 37 -16 62 -15 14 -25 21
-21 14 4 -8 -2 -11 -21 -9 -16 2 -36 4 -45 5 -26 2 -22 19 5 24 12 2 3 4 -20
4 -27 0 -52 -7 -72 -21z m119 -78 c0 7 5 12 11 12 6 0 9 -10 7 -22 -2 -18 -10
-23 -36 -25 -20 -2 -31 1 -27 7 4 6 -6 10 -22 10 l-28 0 35 19 c32 18 36 18
48 3 7 -9 12 -11 12 -4z"/>
        <path d="M1460 1908 c0 -9 6 -21 14 -25 8 -4 16 -19 19 -33 l4 -25 2 26 c0 15
-8 37 -19 50 -16 20 -19 21 -20 7z"/>
        <path d="M1391 1853 c-8 -14 -10 -15 -11 -3 0 13 -1 13 -10 0 -14 -21 -12 -30
5 -30 8 0 15 -4 15 -10 0 -17 19 -11 30 10 8 16 8 24 -4 35 -13 14 -16 13 -25
-2z"/>
        <path d="M1448 1803 c10 -4 9 -8 -4 -17 -9 -7 -14 -18 -10 -25 5 -8 13 -4 26
11 18 22 11 39 -15 37 -5 0 -4 -3 3 -6z"/>
        <path d="M1979 1806 c-6 -6 -97 -17 -157 -20 -41 -2 -59 -8 -75 -26 -12 -13
-15 -19 -7 -13 8 6 62 13 119 16 75 4 108 10 119 21 9 8 13 18 11 21 -3 3 -8
3 -10 1z"/>
        <path d="M1483 1767 c-17 -17 -19 -24 -9 -33 10 -9 15 -4 24 19 15 39 11 43
-15 14z"/>
        <path d="M1576 1730 c-6 -24 -10 -29 -13 -17 -3 9 -9 15 -14 12 -5 -4 -9 -1
-9 5 0 6 -4 8 -10 5 -5 -3 -10 -15 -10 -26 0 -11 4 -17 10 -14 5 3 12 -6 16
-20 3 -13 10 -22 15 -19 5 3 9 0 9 -6 0 -6 4 -9 9 -5 5 3 13 0 16 -6 4 -5 13
-8 21 -5 7 3 18 -3 23 -12 9 -15 10 -14 11 5 0 33 18 37 23 6 2 -16 3 -12 2 9
-2 20 2 41 8 47 8 8 8 11 -1 11 -6 0 -16 -8 -22 -17 -10 -16 -11 -15 -7 4 7
34 -16 23 -35 -17 l-17 -35 0 31 c-1 16 5 36 12 43 10 11 9 13 -5 8 -13 -4
-18 1 -20 21 -3 26 -4 25 -12 -8z"/>
        <path d="M1410 1592 c35 -31 50 -38 50 -24 0 4 -19 18 -43 31 l-42 23 35 -30z"/>
        <path d="M615 449 c11 -64 12 -133 3 -140 -4 -3 8 -24 27 -46 24 -28 31 -43
23 -46 -10 -4 -10 -6 0 -6 6 -1 12 -5 12 -11 0 -5 -7 -6 -17 -3 -11 4 -14 3
-9 -5 4 -7 13 -12 20 -12 7 0 21 -10 32 -22 17 -19 17 -21 2 -15 -10 4 -18 3
-18 -2 0 -5 21 -14 46 -21 31 -9 41 -16 32 -21 -9 -6 -5 -9 12 -9 19 0 21 -3
11 -9 -11 -7 -5 -11 22 -16 20 -4 35 -11 32 -15 -6 -9 63 -5 90 6 20 7 20 7 1
-14 -17 -20 -18 -22 -2 -22 11 0 14 -4 10 -12 -5 -7 4 -3 20 9 15 12 33 20 41
17 7 -3 16 -1 20 5 3 6 13 11 22 11 13 0 13 -3 2 -17 -13 -17 -13 -17 7 -1 26
23 41 23 23 1 -13 -15 -12 -15 8 -5 12 7 30 22 40 35 10 13 26 26 36 30 15 6
17 0 17 -43 0 -44 3 -50 20 -50 19 0 20 4 14 38 -10 56 -33 139 -33 122 -1
-15 -91 -94 -98 -86 -3 2 1 15 8 28 l12 23 -25 -23 c-16 -14 -31 -20 -42 -16
-10 4 -25 -1 -36 -11 -18 -16 -46 -13 -35 5 3 5 -17 7 -45 4 -37 -3 -49 -1
-44 8 5 8 0 9 -15 5 -14 -3 -24 0 -28 9 -3 8 -11 14 -18 14 -21 0 -75 31 -75
43 0 7 -9 18 -21 25 -13 9 -19 20 -16 32 3 11 -2 25 -10 31 -20 17 -42 62 -42
85 1 18 -7 63 -16 94 -3 8 0 21 4 29 8 13 12 13 28 1 16 -13 17 -12 3 2 -8 9
-26 19 -39 23 -22 7 -23 6 -16 -36z"/>
        <path d="M731 457 c-8 -10 -7 -17 2 -28 6 -8 11 -12 10 -10 -1 2 2 12 7 22 12
22 -3 34 -19 16z"/>
        <path d="M844 396 c32 -30 38 -30 29 2 -6 23 -23 31 -23 11 0 -8 -5 -8 -17 1
-10 7 -5 0 11 -14z"/>
        <path d="M1963 407 c3 -8 9 -32 13 -51 3 -20 11 -36 16 -36 6 0 7 8 3 18 -3 9
-9 29 -12 45 -3 15 -10 30 -16 34 -6 4 -8 0 -4 -10z"/>
        <path d="M832 296 c7 -8 16 -12 20 -10 3 2 8 -1 10 -8 3 -8 9 -8 24 1 13 9 14
11 2 7 -9 -2 -19 2 -22 10 -3 8 -15 14 -26 14 -17 0 -19 -2 -8 -14z"/>
        <path d="M770 268 c20 -18 55 -24 64 -10 2 4 -15 12 -40 18 -43 10 -43 10 -24
-8z"/>
        <path d="M925 263 c-27 -2 -54 -9 -60 -14 -14 -15 94 -7 120 9 13 7 15 11 5
10 -8 -1 -37 -3 -65 -5z"/>
        <path d="M1700 254 c53 -16 63 -17 55 -5 -3 5 3 12 12 14 10 3 -11 5 -47 5
l-65 1 45 -15z"/>
        <path d="M952 208 c-18 -11 -59 -24 -90 -28 l-57 -7 48 -2 c46 -1 117 25 132
49 9 14 5 13 -33 -12z"/>
        <path d="M1635 200 c-4 -6 6 -10 24 -10 16 0 33 5 36 10 4 6 -6 10 -24 10 -16
0 -33 -4 -36 -10z"/>
        <path d="M1012 168 c-7 -7 -12 -18 -12 -25 0 -8 -10 -18 -22 -23 -23 -10 -23
-10 1 -7 17 1 29 12 38 35 14 35 13 38 -5 20z"/>
        <path d="M1605 140 c11 -5 52 -8 90 -8 l70 1 -55 7 c-30 5 -71 8 -90 8 -28 1
-31 -1 -15 -8z"/>
        <path d="M1587 98 c2 -5 11 -8 19 -8 8 0 14 -6 14 -12 0 -10 2 -10 8 -1 4 6
25 13 47 15 31 3 26 5 -27 8 -36 3 -64 2 -61 -2z"/>
        <path d="M1611 25 c1 -24 3 -25 6 -7 3 17 11 22 36 23 18 0 41 4 52 8 13 6 0
8 -37 7 -58 -1 -58 -1 -57 -31z"/>
    </g>
</svg>
