<svg height="647.000000pt"
     preserveAspectRatio="xMidYMid meet" viewBox="0 0 386.000000 647.000000" width="386.000000pt"
     xmlns="http://www.w3.org/2000/svg">

    <g fill="#000000"
       stroke="none" transform="translate(0.000000,647.000000) scale(0.100000,-0.100000)">
        <path d="M2524 6451 c-17 -10 -41 -33 -54 -51 -12 -17 -52 -56 -88 -86 -36
-29 -89 -85 -117 -123 -48 -64 -168 -266 -228 -387 l-26 -51 -103 -7 c-57 -4
-122 -11 -145 -15 -39 -7 -43 -6 -43 11 0 10 -7 33 -16 50 l-16 31 -66 -7
c-101 -9 -206 -41 -320 -98 -57 -28 -107 -47 -112 -42 -4 5 -24 40 -44 78 -46
88 -79 192 -106 336 -38 201 -69 258 -136 247 -54 -9 -107 -50 -201 -157 -191
-215 -307 -451 -358 -725 -24 -126 -22 -122 -48 -96 -26 23 -79 28 -95 9 -21
-26 -24 -87 -8 -167 18 -88 72 -251 115 -346 l28 -61 -19 -54 c-27 -78 -47
-179 -59 -295 -6 -55 -12 -101 -14 -103 -2 -2 -19 8 -37 22 -58 44 -105 59
-144 46 -37 -12 -64 -52 -64 -93 0 -41 31 -131 62 -176 l29 -44 -28 -29 c-21
-22 -28 -39 -28 -68 0 -35 7 -47 58 -98 61 -61 66 -72 42 -92 -19 -16 -19 -63
0 -100 21 -41 169 -165 231 -195 27 -13 75 -27 105 -31 43 -5 62 -14 94 -43
152 -142 290 -233 429 -286 l61 -23 -40 -17 c-309 -126 -525 -307 -644 -539
-47 -92 -84 -199 -105 -306 -9 -42 -25 -98 -37 -124 -29 -67 -36 -153 -15
-197 27 -57 105 -89 181 -75 45 9 102 58 110 96 5 21 13 30 27 30 11 0 33 13
49 29 40 41 40 91 -2 154 l-31 47 36 64 c68 121 172 215 336 303 83 45 236
100 247 89 4 -3 7 -111 7 -239 0 -174 -4 -261 -18 -347 -26 -172 -94 -407
-148 -513 -10 -21 -18 -53 -16 -70 3 -35 17 -42 101 -52 l47 -6 -6 -142 c-7
-142 4 -421 31 -807 8 -113 15 -208 15 -211 0 -4 -60 -6 -132 -7 -274 0 -435
-72 -383 -171 9 -18 27 -36 41 -41 14 -6 130 -13 257 -16 258 -7 318 -1 407
44 l55 27 6 370 c6 350 24 635 50 783 l12 65 60 -7 c34 -3 132 -9 218 -13
l158 -6 5 -51 c34 -320 59 -729 59 -953 -1 -279 -3 -267 67 -297 57 -23 146
-28 320 -17 159 10 270 30 297 53 19 15 16 68 -6 101 -40 61 -103 82 -277 93
l-114 7 1 331 0 331 88 -85 c172 -167 382 -256 588 -248 85 3 94 5 121 31 29
28 31 28 88 18 81 -15 198 -13 274 5 112 26 180 88 180 166 0 32 6 42 47 75
103 84 171 159 183 203 17 62 4 118 -35 157 -29 29 -39 33 -89 33 -66 0 -151
-30 -257 -90 -87 -49 -188 -91 -308 -127 -67 -19 -116 -26 -220 -30 -169 -7
-255 7 -308 49 -21 17 -61 40 -89 53 -71 32 -118 94 -183 244 l-39 91 20 25
c19 25 19 25 -6 68 -26 43 -34 87 -17 87 10 0 59 -37 143 -109 71 -61 139 -95
172 -87 36 9 69 48 181 217 58 87 111 161 117 166 7 4 43 8 79 8 89 2 144 33
183 105 34 63 46 178 26 269 l-13 60 31 39 c17 21 55 84 85 138 29 54 70 123
90 153 20 29 37 63 37 76 0 38 -43 89 -108 125 -45 25 -60 39 -55 50 17 39 6
74 -41 117 -38 37 -44 47 -36 63 5 10 10 37 10 60 0 34 -4 42 -25 50 -31 12
-70 -2 -107 -37 -25 -24 -28 -24 -49 -9 -33 23 -91 20 -123 -5 l-26 -21 -43
21 c-51 25 -85 26 -132 7 -35 -15 -83 -72 -105 -126 -7 -16 -17 -30 -22 -30
-5 0 -28 13 -51 29 -23 15 -70 43 -104 60 -66 33 -80 51 -39 51 68 0 465 124
566 176 58 30 244 162 388 276 163 129 294 428 280 642 -5 67 -32 145 -57 161
-6 3 -78 -2 -161 -11 -110 -13 -169 -15 -217 -8 l-67 9 -36 150 c-34 139 -78
275 -145 450 -15 41 -50 101 -83 143 -31 41 -69 93 -85 116 -28 43 -56 152
-57 221 0 22 -9 101 -20 175 -12 74 -25 200 -29 280 -9 136 -11 146 -34 166
-23 20 -23 22 -9 49 15 30 15 44 -8 244 -18 147 -30 162 -96 122z m-30 -138
c-126 -295 -154 -399 -161 -595 -3 -76 -9 -138 -12 -138 -4 0 -40 29 -79 65
-46 41 -86 68 -112 75 -22 6 -40 13 -40 16 0 21 116 237 171 318 56 84 232
296 246 296 2 0 -4 -17 -13 -37z m67 -134 c2 -35 -3 -53 -19 -74 -12 -15 -22
-35 -22 -44 0 -26 37 -79 59 -86 19 -6 21 -14 21 -86 0 -101 14 -234 46 -423
14 -82 23 -151 20 -154 -3 -2 -71 48 -152 113 l-147 118 7 119 c11 195 49 355
129 538 41 94 41 94 48 60 4 -19 9 -56 10 -81z m-1660 -6 c-12 -44 -41 -143
-65 -219 -25 -76 -54 -175 -66 -219 -28 -103 -38 -309 -20 -386 19 -81 40
-129 57 -129 8 0 42 27 74 60 32 33 63 60 69 60 13 0 80 -42 137 -85 90 -68
158 -133 215 -205 91 -113 123 -125 156 -57 7 15 18 27 23 27 27 0 91 -45 144
-101 91 -96 127 -129 157 -145 27 -14 28 -13 53 26 14 22 28 40 31 40 2 0 22
-9 44 -20 49 -25 100 -87 140 -171 41 -87 79 -123 125 -122 20 1 43 7 52 15
31 25 55 99 61 185 4 72 7 83 21 77 37 -17 106 -15 130 4 21 17 24 27 22 74
-2 60 -7 81 -45 181 -14 37 -26 70 -26 72 0 3 10 5 23 5 13 0 32 6 42 14 17
12 18 18 7 66 -7 29 -28 88 -47 132 -20 45 -34 84 -33 88 4 12 193 -141 281
-227 123 -121 213 -288 282 -523 39 -134 88 -378 83 -411 -8 -58 -174 -106
-617 -180 -325 -53 -472 -84 -611 -126 -350 -106 -666 -278 -863 -472 -54 -53
-108 -112 -119 -131 -12 -19 -23 -37 -24 -39 -5 -6 -215 170 -221 185 -3 8
-14 14 -24 14 -26 0 -133 37 -192 67 -57 28 -124 88 -150 132 -18 31 -18 31 5
31 13 0 61 -9 108 -20 110 -25 118 -25 95 0 -9 10 -41 24 -70 30 -64 13 -125
57 -182 131 -36 47 -63 97 -63 116 0 3 20 3 45 0 32 -3 67 -19 117 -52 80 -53
153 -73 146 -39 -2 11 -26 30 -58 47 -58 29 -164 127 -230 213 -42 53 -56 97
-46 138 5 22 9 24 38 15 17 -5 56 -26 86 -46 96 -67 102 -70 111 -55 4 7 11
70 14 140 7 136 33 268 87 435 17 55 29 101 26 104 -3 3 -15 -11 -27 -32 -18
-30 -24 -34 -31 -21 -23 41 -80 195 -98 264 -21 80 -37 182 -28 182 3 0 24
-25 47 -55 23 -30 48 -55 55 -55 9 0 16 20 20 57 21 179 80 368 175 558 83
166 136 248 205 319 45 46 156 128 164 121 2 -2 -6 -39 -17 -82z m73 -143 c49
-209 93 -318 159 -387 l30 -32 -69 -63 c-37 -35 -116 -112 -173 -171 -76 -78
-107 -104 -112 -94 -32 57 -40 264 -15 382 8 39 42 159 75 269 34 109 61 206
61 214 0 41 20 -13 44 -118z m686 -285 c0 -16 -36 -74 -63 -102 -17 -18 -28
-35 -26 -38 3 -2 28 4 56 15 121 46 215 64 338 64 143 1 166 -7 263 -91 l67
-58 53 -160 c29 -88 52 -163 52 -166 0 -3 -13 -4 -29 -1 -26 4 -29 1 -35 -32
-5 -26 2 -61 29 -141 53 -160 45 -212 -27 -166 -53 33 -78 45 -84 38 -3 -3 -9
-59 -14 -125 -7 -124 -27 -183 -61 -190 -10 -2 -42 34 -85 95 -38 54 -82 113
-98 131 -58 66 -126 80 -181 38 l-32 -25 -30 27 c-17 15 -57 58 -89 96 -72 84
-120 116 -173 116 -32 0 -44 -6 -64 -31 l-24 -31 -94 102 c-104 113 -197 192
-278 238 l-54 30 64 67 c130 135 297 236 468 281 82 22 151 30 151 19z m1877
-1612 c-5 -129 -29 -240 -52 -249 -21 -9 -127 38 -165 72 -49 45 -80 119 -87
210 l-6 72 44 6 c43 6 110 10 218 14 l54 2 -6 -127z m-362 40 c0 -112 25 -174
94 -244 40 -40 74 -62 119 -80 34 -13 62 -29 62 -35 0 -26 -84 -135 -161 -211
-88 -85 -291 -239 -369 -278 -26 -13 -84 -34 -131 -48 -46 -13 -117 -38 -158
-56 -125 -53 -172 -61 -636 -113 -134 -14 -406 -4 -575 21 -212 33 -478 95
-503 119 -12 11 -37 29 -56 41 l-35 20 125 123 c175 174 321 270 584 383 282
121 546 187 990 245 278 37 378 64 475 130 72 49 95 59 140 59 l35 1 0 -77z
m-1937 -1108 c16 -13 49 -55 72 -92 69 -107 107 -143 153 -143 43 0 77 16 160
73 31 22 59 38 61 36 8 -9 22 -1023 16 -1169 -7 -184 -18 -215 -88 -240 -36
-12 -60 -12 -204 3 -90 10 -198 17 -241 17 l-77 0 26 52 c37 73 80 224 104
362 28 164 43 466 33 656 l-8 155 -29 3 c-121 14 -430 -136 -575 -280 -56 -55
-131 -161 -131 -185 0 -17 -20 -17 -45 1 -11 7 -37 19 -58 26 -35 11 -38 15
-32 39 4 14 24 63 45 108 123 263 346 457 660 574 93 35 121 36 158 4z m333
-6 c85 -6 236 -9 336 -6 l183 5 -44 -57 c-46 -59 -115 -131 -127 -131 -4 0
-18 14 -31 31 -13 17 -43 53 -68 81 -60 65 -97 69 -162 16 -23 -19 -76 -52
-115 -72 l-73 -36 -38 35 c-21 19 -58 62 -82 96 l-43 62 55 -6 c30 -4 124 -12
209 -18z m1579 7 c0 -2 -8 -10 -17 -17 -16 -13 -17 -12 -4 4 13 16 21 21 21
13z m-908 -40 c111 -42 250 -116 307 -163 7 -6 -94 -162 -155 -242 -2 -2 -14
6 -28 16 -14 11 -52 30 -85 43 -33 12 -78 38 -100 57 -33 27 -42 31 -47 19 -3
-8 -1 -120 4 -248 5 -128 6 -242 2 -253 -4 -12 -49 -83 -99 -159 -116 -178
-116 -181 -15 -244 179 -112 164 -96 190 -201 13 -52 22 -97 19 -99 -11 -11
-227 -43 -300 -44 -81 -2 -126 12 -154 46 -9 11 -13 118 -15 433 -1 269 -9
517 -21 696 -10 152 -15 280 -12 283 11 12 50 -26 93 -90 76 -113 120 -102
253 67 47 59 88 107 92 107 4 0 36 -11 71 -24z m584 -7 c41 -19 42 -21 32 -50
-12 -34 -8 -33 -52 -12 -53 25 -74 10 -141 -104 -32 -54 -77 -119 -99 -144
-23 -25 -63 -86 -90 -135 -27 -49 -65 -111 -85 -139 -172 -246 -255 -390 -267
-466 -6 -33 -2 -39 50 -87 31 -28 105 -81 164 -118 59 -36 129 -82 156 -100
51 -36 80 -41 108 -20 10 7 60 76 111 154 l94 141 31 -23 32 -23 -121 -177
c-78 -115 -124 -174 -132 -169 -28 16 -201 133 -302 203 -60 43 -149 101 -197
129 -49 29 -88 56 -88 61 0 37 273 456 485 745 52 72 115 171 139 220 70 141
90 154 172 114z m209 2 c22 -10 73 -42 113 -70 l72 -52 -15 -36 c-26 -62 -32
-65 -78 -41 -23 11 -83 47 -133 80 -79 50 -91 62 -87 81 14 58 58 71 128 38z
m-156 -178 c113 -66 311 -193 311 -199 0 -5 -33 -58 -115 -184 -34 -52 -85
-139 -114 -192 -44 -82 -57 -98 -85 -108 -61 -20 -112 -91 -101 -142 6 -24 0
-40 -28 -81 -19 -29 -52 -79 -72 -112 -21 -33 -53 -79 -72 -101 l-33 -41 -80
51 c-44 28 -119 75 -167 104 -49 29 -103 66 -122 81 l-34 28 41 86 c52 110
152 277 262 437 48 69 131 196 185 283 70 113 103 156 113 152 8 -3 58 -31
111 -62z m411 -90 c14 -9 37 -27 52 -41 l28 -26 -40 -74 c-80 -148 -232 -362
-258 -362 -29 0 -60 -28 -67 -60 -5 -21 -13 -30 -26 -30 -27 0 -24 17 10 55
30 35 103 159 166 284 20 41 46 87 57 102 25 34 18 70 -21 110 -26 25 -27 29
-12 43 20 21 80 20 111 -1z m-989 -154 l50 -31 -18 -28 c-82 -126 -99 -150
-105 -150 -9 0 -16 44 -23 159 l-7 94 26 -7 c15 -4 49 -20 77 -37z m-1868
-350 c23 -12 37 -27 37 -38 0 -10 7 -24 15 -31 32 -27 56 -70 50 -90 -5 -16
-14 -19 -53 -17 l-47 2 -5 -50 c-3 -27 -9 -56 -13 -62 -10 -16 -78 -17 -112
-1 -40 18 -36 101 11 223 41 106 37 104 117 64z m2709 -104 c16 -21 8 -107
-12 -140 -54 -88 -208 -90 -272 -4 -19 25 -19 28 -4 57 20 40 44 46 111 31 65
-14 80 -6 95 51 10 38 11 38 43 27 17 -7 35 -16 39 -22z m-1304 -720 c21 -3
85 1 142 10 58 9 128 19 156 22 l51 5 6 -308 c4 -170 10 -459 13 -642 l7 -332
46 -1 c137 -1 268 -17 305 -36 l39 -20 -34 -6 c-219 -39 -423 -45 -486 -15
-34 16 -42 58 -19 94 15 21 15 47 6 226 -5 112 -15 266 -20 343 -14 186 -51
630 -53 632 -6 5 -328 23 -427 23 l-118 0 -15 -39 c-45 -110 -64 -324 -77
-825 -6 -209 -14 -384 -18 -388 -14 -14 -386 -31 -499 -23 -93 6 -102 9 -85
21 48 33 138 45 317 42 l175 -3 0 125 c0 69 -9 256 -20 415 -11 160 -20 389
-20 509 l0 219 138 -9 c255 -16 320 -9 362 41 12 15 17 12 52 -28 28 -34 48
-47 76 -52z m584 -290 c89 -94 161 -137 258 -155 96 -18 93 -17 80 -41 -14
-26 -5 -82 15 -99 13 -11 14 -16 2 -34 -8 -12 -18 -36 -22 -55 -7 -31 -9 -33
-39 -27 -89 17 -291 148 -380 247 -77 85 -87 117 -85 261 1 67 4 128 6 135 3
8 24 -23 47 -69 28 -57 64 -106 118 -163z m1340 38 c5 -41 -10 -102 -32 -133
-10 -15 -62 -57 -115 -94 -96 -68 -111 -90 -80 -116 22 -19 18 -35 -16 -64
-72 -61 -255 -77 -422 -37 -49 12 -93 21 -99 21 -7 0 -8 -15 -4 -41 l7 -41
-76 4 c-61 3 -79 7 -97 26 -22 22 -22 23 -6 50 42 66 42 68 14 105 -28 36 -34
81 -14 93 7 5 67 9 133 10 172 3 220 18 535 159 90 41 218 83 257 84 6 1 13
-11 15 -26z"/>
        <path d="M2571 4419 c-113 -10 -187 -33 -202 -61 -11 -21 -10 -21 77 -14 49 3
143 9 209 12 144 6 165 10 165 29 0 36 -95 49 -249 34z"/>
        <path d="M1455 4330 c-332 -49 -373 -59 -395 -99 -20 -39 12 -39 200 -1 52 11
144 24 204 30 59 5 125 15 145 21 43 13 77 36 68 46 -11 10 -156 12 -222 3z"/>
        <path d="M2580 4296 c-23 -13 -23 -15 -6 -22 23 -9 126 8 129 21 3 16 -95 16
-123 1z"/>
        <path d="M1234 4150 c-53 -8 -94 -25 -94 -39 0 -10 82 4 123 20 15 6 27 15 27
20 0 5 -1 8 -2 8 -2 -1 -26 -5 -54 -9z"/>
        <path d="M2070 3634 c-256 -20 -326 -28 -395 -40 -99 -18 -165 -39 -230 -73
l-50 -25 38 -6 c35 -5 41 -10 76 -75 26 -48 46 -73 64 -79 34 -12 50 1 82 71
13 30 30 53 36 51 6 -2 27 -28 47 -58 33 -49 41 -55 72 -55 34 0 36 3 70 72
50 103 52 104 92 45 60 -91 79 -90 129 10 16 32 33 58 39 58 5 0 29 -27 55
-59 69 -91 97 -91 125 -4 8 26 20 48 27 50 7 3 26 -23 42 -56 48 -94 95 -92
130 6 44 121 52 133 82 133 35 0 46 16 16 25 -24 7 -474 15 -547 9z m422 -89
c-15 -30 -32 -55 -39 -55 -14 0 -53 61 -53 83 0 16 23 22 87 26 l31 1 -26 -55z
m-195 31 c8 -8 -34 -84 -43 -78 -6 4 -22 23 -37 44 -21 26 -24 38 -15 42 12 5
89 -1 95 -8z m-217 -7 c0 -16 -40 -79 -50 -79 -7 0 -50 64 -50 75 0 4 41 11
78 14 12 0 22 -4 22 -10z m-210 -29 c0 -23 -25 -76 -47 -102 -14 -16 -19 -14
-62 34 -25 28 -46 56 -46 62 0 10 54 20 128 24 21 2 27 -2 27 -18z m-240 -59
c-17 -26 -30 -53 -30 -60 0 -16 -15 -13 -31 7 -19 24 -39 60 -39 71 0 10 65
28 107 30 23 1 22 0 -7 -48z"/>
        <path d="M2722 2771 c-18 -11 14 -36 135 -107 96 -57 146 -74 158 -55 12 21
-21 56 -85 92 -35 18 -81 44 -103 57 -41 23 -82 28 -105 13z"/>
        <path d="M2680 2627 c0 -21 79 -67 114 -67 63 0 0 67 -72 77 -34 5 -42 3 -42
-10z"/>
        <path d="M2865 2510 c-10 -15 4 -31 42 -46 36 -15 53 -12 53 11 0 31 -79 60
-95 35z"/>
        <path d="M2620 2502 c0 -22 143 -106 232 -138 33 -12 38 -11 38 2 0 24 -55 70
-125 105 -67 33 -145 49 -145 31z"/>
        <path d="M2523 2394 c-28 -12 -7 -32 98 -91 132 -74 147 -80 155 -58 9 23 -15
44 -111 98 -81 46 -120 60 -142 51z"/>
        <path d="M2475 2220 c-10 -16 14 -40 41 -40 25 0 29 7 16 26 -11 17 -49 26
-57 14z"/>
        <path d="M2570 2102 c0 -20 34 -52 56 -52 28 0 32 21 8 44 -16 16 -64 22 -64
8z"/>
        <path d="M2342 2092 c-24 -8 -11 -21 51 -49 34 -17 89 -55 122 -85 63 -58 91
-73 113 -59 10 6 8 13 -8 34 -23 29 -132 117 -170 137 -29 16 -90 28 -108 22z"/>
        <path d="M2320 1995 c0 -18 32 -62 52 -73 40 -20 78 -32 78 -23 0 4 -10 17
-22 28 -28 25 -108 75 -108 68z"/>
    </g>
</svg>
