<svg height="300.000000pt"
     preserveAspectRatio="xMidYMid meet" viewBox="0 0 300.000000 300.000000" width="300.000000pt"
     xmlns="http://www.w3.org/2000/svg">
    <metadata>
        Created by potrace 1.10, written by Peter Selinger 2001-2011
    </metadata>
    <g fill="#000000"
       stroke="none" transform="translate(0.000000,300.000000) scale(0.100000,-0.100000)">
        <path d="M1489 2965 c-3 -2 -24 -5 -47 -6 -26 -2 -49 -10 -59 -21 -9 -10 -22
-18 -29 -18 -26 0 -72 -51 -87 -98 -17 -49 -15 -141 4 -189 5 -14 4 -25 -3
-29 -13 -9 -4 -95 14 -123 15 -24 53 -30 45 -7 -20 52 -17 102 18 262 5 24 44
33 151 35 34 1 68 5 75 9 6 5 23 3 36 -3 18 -8 29 -8 45 2 15 9 23 9 34 0 17
-14 18 -30 2 -26 -7 1 -12 -6 -12 -16 2 -17 0 -17 -22 -2 -24 15 -24 15 -19
-7 24 -100 32 -171 23 -213 -5 -25 -14 -45 -20 -45 -16 0 -37 -32 -38 -56 0
-11 -9 -29 -20 -39 -11 -10 -18 -21 -15 -24 9 -15 -15 -34 -54 -41 -39 -7 -42
-6 -76 36 -19 23 -35 53 -35 66 1 22 2 22 30 -9 30 -33 81 -45 95 -23 4 6 -10
10 -34 10 -23 0 -41 5 -41 10 0 6 28 10 65 10 37 0 65 4 65 10 0 6 0 13 0 18
0 4 -8 7 -18 8 -44 1 -89 34 -47 34 8 0 15 5 15 11 0 6 -9 8 -20 4 -24 -7 -58
9 -41 19 6 4 11 29 11 56 0 57 -10 66 -79 72 l-44 3 -15 -45 c-12 -35 -13 -53
-4 -84 7 -28 7 -45 0 -53 -6 -8 -7 -28 -3 -50 4 -21 7 -66 8 -100 0 -35 4 -63
8 -63 5 0 35 -20 67 -45 53 -42 57 -43 64 -24 5 13 1 31 -15 54 -24 38 -44 44
-54 19 -6 -15 -8 -15 -20 2 -17 23 -17 64 0 64 8 0 24 -12 38 -26 20 -22 30
-25 63 -21 75 10 166 97 166 158 0 21 5 29 18 29 15 1 15 2 1 10 -11 6 -14 19
-11 40 7 50 27 38 23 -15 -1 -17 1 -17 13 5 17 27 21 96 7 104 -5 3 -7 -16 -5
-42 1 -26 1 -37 -2 -24 -3 12 -10 22 -15 22 -14 0 -11 36 5 49 8 7 19 40 25
75 12 69 5 104 -29 141 -10 11 -20 29 -22 39 -5 31 -162 119 -179 101z m77
-57 c42 -45 66 -86 55 -93 -5 -3 -13 5 -17 17 -7 22 -7 22 -15 3 -6 -15 -8
-16 -8 -4 -1 9 -8 19 -16 23 -11 4 -14 0 -12 -17 2 -12 2 -16 0 -9 -3 6 -9 12
-14 12 -6 0 -5 10 2 23 6 12 8 19 4 14 -5 -4 -20 3 -34 15 l-26 23 24 -27 c14
-16 22 -31 18 -34 -3 -4 -2 -15 4 -26 9 -17 8 -18 -10 -9 -11 6 -24 17 -28 24
-4 6 -19 21 -32 32 l-24 20 22 -43 c29 -58 24 -67 -22 -37 -20 14 -37 23 -37
20 0 -3 -13 2 -29 11 -31 18 -33 38 -4 27 10 -4 14 -2 9 5 -13 21 12 21 40 0
16 -13 23 -15 17 -7 -7 9 -9 20 -5 24 4 5 0 5 -8 0 -12 -6 -12 -5 -4 4 10 10
17 10 35 0 21 -11 23 -11 11 3 -17 22 -1 31 33 18 35 -13 38 -13 31 5 -9 25 8
17 40 -17z m64 -22 c0 5 5 2 10 -6 5 -8 10 -19 10 -25 0 -5 -4 -4 -9 3 -4 8
-12 12 -16 10 -4 -1 -15 8 -23 22 l-16 25 22 -19 c12 -11 22 -15 22 -10z
m-232 -68 c17 -11 32 -21 32 -22 0 -7 -58 3 -82 14 -35 16 -39 45 -5 35 12 -4
37 -16 55 -27z m-49 -26 c8 -15 3 -25 -26 -53 -25 -24 -32 -28 -24 -12 14 28
14 36 -1 28 -7 -4 -4 1 6 9 11 9 15 16 8 16 -6 0 -9 7 -6 15 8 21 31 19 43 -3z
m95 -268 c-6 -68 5 -95 30 -75 9 8 16 9 16 4 0 -5 9 -10 20 -11 42 -4 49 -6
45 -12 -3 -4 -30 -8 -60 -9 -32 0 -54 3 -50 8 8 14 -12 23 -35 16 -11 -4 -20
-14 -21 -23 0 -10 -6 -5 -14 13 -9 21 -10 32 -3 37 7 4 4 21 -10 49 -24 49
-20 63 17 55 14 -3 20 -3 14 0 -18 8 -16 25 1 18 8 -3 17 -1 21 5 4 8 11 7 20
-2 9 -10 12 -31 9 -73z"/>
        <path d="M1563 2641 c-51 -9 -60 -16 -43 -35 8 -10 27 -15 56 -14 43 2 57 11
32 21 -8 3 -5 6 5 6 10 1 17 6 15 13 -5 15 -15 17 -65 9z"/>
        <path d="M1630 2293 c0 -25 -11 -41 -57 -83 -32 -28 -49 -47 -38 -42 37 18
115 93 115 110 0 10 -5 24 -10 32 -7 11 -10 7 -10 -17z"/>
        <path d="M1674 2206 c-1 -188 -36 -444 -82 -606 l-19 -65 -6 200 c-4 153 -10
211 -22 245 -17 43 -22 97 -10 108 3 3 21 -10 40 -28 19 -18 37 -32 39 -29 6
6 -67 99 -85 110 -23 12 -67 -2 -84 -27 -14 -21 -13 -27 1 -58 16 -32 16 -37
-1 -78 -14 -35 -18 -80 -20 -243 -2 -110 1 -211 5 -225 7 -23 8 -22 10 10 1
19 2 59 2 88 1 28 5 52 9 52 5 0 9 7 9 16 0 8 -5 12 -11 8 -11 -6 -8 10 9 55
4 10 1 12 -9 6 -11 -7 -11 -5 1 10 11 14 12 19 3 22 -7 3 -13 9 -13 14 0 6 4
8 9 5 5 -3 8 5 7 18 0 13 -5 21 -11 18 -5 -3 -4 2 4 11 7 9 11 28 9 42 -3 14
-1 25 4 25 5 0 7 4 4 9 -4 5 0 12 6 14 10 4 10 6 1 6 -9 1 -10 8 -4 24 10 25
11 29 12 60 1 17 4 14 13 -13 6 -19 15 -41 19 -47 6 -9 3 -11 -10 -7 -16 5
-16 4 1 -10 14 -11 20 -29 20 -60 1 -27 5 -42 11 -39 5 3 4 0 -2 -7 -10 -11
-10 -17 0 -29 10 -12 9 -14 -5 -8 -10 3 -20 1 -24 -6 -4 -7 -4 -9 1 -5 10 10
34 -24 32 -43 -2 -8 -6 -20 -10 -26 -5 -9 -3 -13 7 -13 14 0 14 -3 4 -21 -10
-17 -10 -23 -1 -26 10 -4 10 -7 0 -18 -7 -7 -16 -10 -22 -7 -5 3 -4 -2 4 -11
16 -20 25 -23 15 -4 -5 9 -4 9 6 0 18 -17 26 -129 10 -147 -6 -8 -12 -27 -14
-43 -1 -15 -5 -33 -8 -38 -3 -6 -11 -30 -18 -54 -7 -26 -15 -40 -21 -34 -5 5
-45 67 -89 138 -107 174 -110 178 -44 50 31 -60 72 -132 91 -159 28 -38 33
-54 28 -75 -11 -38 -9 -109 3 -123 5 -7 12 -26 13 -43 2 -16 17 -52 32 -79 16
-28 30 -61 32 -75 2 -15 4 -28 4 -30 1 -2 7 2 14 8 8 6 17 8 21 4 3 -4 -19 47
-50 112 -73 154 -75 171 -31 282 100 253 151 435 167 608 6 66 14 144 16 173
3 29 9 50 14 47 5 -3 11 -1 14 4 8 12 21 9 81 -18 28 -12 58 -24 69 -26 10 -3
23 -8 30 -13 6 -5 27 -14 46 -22 92 -34 90 -32 90 -75 0 -22 -16 -116 -35
-210 -19 -93 -35 -178 -34 -190 1 -34 65 260 75 348 4 31 11 57 15 57 5 0 9
-8 9 -18 0 -10 4 -22 9 -27 17 -19 33 -80 52 -194 5 -36 12 -68 14 -71 3 -4 7
-32 11 -61 3 -30 15 -85 25 -124 22 -82 23 -89 7 -79 -10 6 -10 5 -1 -7 6 -8
17 -37 24 -64 6 -28 16 -56 22 -62 7 -10 1 -13 -26 -13 -20 0 -45 -8 -58 -20
l-24 -20 28 10 c42 15 72 12 91 -9 16 -17 15 -18 -31 -18 -27 1 -70 -6 -98
-14 -48 -14 -50 -14 -52 6 -1 11 -8 58 -17 104 -8 47 -13 88 -10 93 3 4 2 8
-3 8 -15 0 -58 73 -64 109 l-6 36 -2 -41 c0 -23 -7 -47 -15 -53 -20 -17 -58
-100 -51 -111 7 -12 -29 -97 -52 -123 -16 -17 -16 -18 11 -8 15 6 29 11 32 11
9 0 3 -137 -6 -148 -6 -6 -7 -10 -4 -7 12 8 30 -21 45 -75 9 -30 19 -62 23
-71 6 -14 -2 -17 -56 -21 -78 -6 -83 -4 -96 35 -5 18 -10 24 -11 15 -1 -9 4
-29 9 -44 10 -26 11 -26 85 -19 101 9 126 -15 90 -85 -8 -16 -22 -61 -30 -100
-8 -38 -26 -93 -41 -121 -14 -28 -23 -53 -20 -56 8 -8 45 59 52 95 10 52 34
34 34 -26 0 -15 5 -34 11 -42 11 -16 8 58 -7 152 -5 35 -3 54 8 70 8 13 18 37
23 53 7 28 8 29 17 9 9 -20 67 -49 77 -38 3 3 -10 18 -29 34 -30 24 -33 32
-24 47 12 18 18 19 64 9 23 -5 23 -5 -2 6 -37 16 -41 35 -28 109 6 34 12 72
12 83 1 71 23 101 67 89 18 -5 19 -8 9 -21 -11 -13 -10 -14 10 -3 12 6 22 16
22 21 0 6 -10 10 -22 11 l-23 0 22 11 c22 11 56 6 83 -11 11 -8 12 -15 3 -33
-11 -24 -42 -197 -46 -261 -1 -27 -9 -44 -26 -56 -22 -17 -23 -19 -6 -28 16
-9 16 -11 -3 -29 -13 -12 -20 -31 -20 -49 1 -17 -2 -40 -6 -52 -6 -19 -12 -21
-39 -16 -41 7 -57 28 -58 72 0 20 -3 44 -7 53 -4 10 -7 -41 -7 -112 0 -114 -2
-132 -21 -157 -28 -38 -87 -67 -122 -58 -58 14 -150 142 -238 330 -21 44 -39
81 -40 83 -6 10 -74 -12 -74 -24 0 -9 -12 -14 -34 -14 -32 0 -34 -2 -34 -36 0
-34 1 -35 19 -18 14 13 16 20 8 31 -9 10 -4 13 30 13 29 0 40 4 35 11 -4 7 -2
9 7 5 8 -3 21 -9 30 -12 8 -3 42 -57 74 -119 61 -119 159 -254 195 -267 12 -4
38 -2 62 7 51 17 61 12 52 -28 -4 -18 -7 -48 -6 -67 0 -19 1 -110 1 -202 1
-159 2 -168 20 -168 18 0 20 12 25 233 8 300 9 316 18 311 5 -3 8 -12 8 -21 0
-12 3 -13 15 -3 8 6 19 9 25 5 5 -3 10 -1 10 4 0 6 6 11 13 11 25 0 43 34 62
115 10 44 29 118 42 164 27 99 60 253 69 331 4 41 2 66 -10 95 -9 21 -21 66
-26 99 -5 34 -16 95 -25 136 -26 128 -44 222 -55 290 -13 77 -44 184 -70 244
-17 42 -22 44 -127 86 -180 72 -235 99 -268 134 l-31 33 0 -61z m-159 -133
c-4 -19 -9 -23 -17 -15 -17 17 -19 42 -5 57 17 18 31 -8 22 -42z m465 -634 c0
-27 26 -146 50 -224 14 -47 16 -73 9 -120 -4 -33 -13 -91 -18 -128 -5 -38 -12
-71 -14 -74 -9 -8 -28 8 -24 20 2 7 -6 41 -19 77 -52 150 -60 281 -24 398 21
70 40 94 40 51z m128 -803 c12 -11 22 -31 22 -45 l0 -26 -13 24 c-17 34 -33
26 -29 -14 2 -28 0 -34 -13 -29 -8 3 -16 12 -16 20 -1 8 -2 20 -3 27 -1 6 5
18 12 26 12 12 11 16 -2 23 -9 5 -16 16 -16 25 0 17 8 12 58 -31z"/>
        <path d="M1290 2224 c-36 -38 -56 -49 -240 -124 l-115 -47 -32 -84 c-17 -46
-39 -124 -48 -174 -8 -49 -22 -124 -30 -165 -9 -41 -22 -111 -30 -154 -9 -44
-18 -83 -21 -87 -2 -4 -6 -34 -9 -65 -3 -32 -10 -63 -15 -68 -27 -27 1 -228
60 -443 66 -238 70 -249 104 -269 17 -10 37 -19 44 -20 18 -3 16 1 41 -74 16
-47 25 -107 31 -215 14 -219 17 -235 43 -235 20 0 22 5 21 43 -1 42 -11 199
-19 292 -5 67 -43 185 -61 192 -8 3 -14 12 -14 20 0 16 -40 107 -45 101 -1 -1
-14 -21 -29 -42 l-26 -39 0 28 c0 16 9 38 19 49 10 12 22 37 25 56 l7 35 -17
-32 c-9 -18 -19 -33 -23 -33 -9 0 -41 77 -41 100 0 12 -7 32 -16 46 -13 19
-14 28 -5 37 13 13 15 31 2 22 -5 -3 -12 3 -15 12 -12 40 -45 230 -45 258 1
17 -2 44 -5 62 -8 44 19 60 69 39 35 -15 45 -10 23 12 -7 7 -27 12 -45 12 -38
0 -38 0 -17 59 8 25 13 55 10 67 -3 12 1 39 10 60 11 26 12 40 5 42 -7 2 -5
16 6 40 8 20 19 57 23 82 30 179 51 273 67 291 7 8 13 38 13 65 0 32 3 44 9
35 7 -11 12 -10 22 8 8 11 20 21 27 21 11 0 75 29 136 62 25 13 105 39 139 44
23 3 27 0 27 -22 0 -19 -4 -25 -15 -20 -13 5 -14 -12 -10 -127 4 -135 21 -246
50 -327 28 -81 25 -76 35 -60 8 13 12 12 25 -5 12 -15 15 -16 12 -4 -3 9 -15
47 -27 85 -18 60 -32 154 -55 382 -4 40 -3 62 3 58 6 -4 6 10 0 37 -5 23 -8
59 -6 80 2 20 3 37 3 37 0 0 -16 -16 -35 -36z m-320 -1633 c12 -24 13 -44 1
-37 -5 4 -11 1 -13 -6 -7 -21 -28 3 -28 33 0 34 24 40 40 10z"/>
        <path d="M986 1875 c3 -22 11 -65 19 -95 11 -42 13 -46 9 -15 -3 22 -11 65
-19 95 -11 42 -13 46 -9 15z"/>
        <path d="M1837 1850 c-55 -7 -82 -28 -73 -58 6 -19 13 -21 74 -16 101 7 102 7
103 24 1 15 -1 44 -5 47 -6 7 -58 8 -99 3z m93 -29 c0 -5 -19 -11 -42 -15 -24
-4 -58 -9 -77 -13 -26 -4 -33 -3 -29 8 7 20 148 39 148 20z"/>
        <path d="M1211 1797 c-1 -11 71 -168 76 -164 2 2 -15 42 -36 88 -22 46 -40 80
-40 76z"/>
        <path d="M1028 1465 c-14 -14 -29 -42 -34 -63 -4 -20 -8 -39 -9 -42 -2 -5 -14
-65 -19 -90 -12 -62 -17 -69 -49 -64 -18 3 -45 0 -62 -5 l-30 -9 32 -1 c18 -1
43 -6 56 -12 27 -12 54 -49 36 -49 -8 0 -9 -16 -5 -52 19 -145 27 -176 54
-203 37 -37 46 -26 100 115 23 61 29 83 36 150 3 25 8 65 11 90 9 65 -27 196
-63 233 l-28 28 -26 -26z m70 -133 c13 -54 14 -77 3 -154 -6 -49 -25 -127 -40
-173 -16 -46 -27 -86 -24 -89 3 -2 2 -10 -3 -17 -13 -22 -34 22 -34 70 0 26
-4 61 -10 79 -14 51 -13 122 3 172 8 25 23 83 32 130 10 47 19 92 22 100 7 20
30 -34 51 -118z"/>
        <path d="M1414 985 c-12 -13 -19 -27 -15 -31 3 -4 -1 -5 -9 -2 -12 4 -16 -3
-16 -33 -2 -65 12 -48 57 69 11 28 9 27 -17 -3z"/>
        <path d="M1415 881 c18 -9 17 -10 -10 -11 l-30 -2 30 -7 c26 -5 30 -11 33 -45
l3 -39 -53 5 c-46 5 -48 5 -18 -4 19 -5 51 -14 71 -20 l36 -10 7 -76 c3 -41 7
-105 7 -141 1 -36 5 -79 10 -96 7 -25 7 -22 4 15 -3 25 -5 103 -6 174 l-2 129
48 1 c33 1 50 6 53 16 4 12 2 13 -9 4 -8 -6 -41 -10 -74 -10 l-60 1 -3 48 c-3
43 -1 47 19 47 37 0 8 20 -37 26 -29 3 -34 2 -19 -5z"/>
        <path d="M1013 816 c4 -10 7 -23 7 -29 0 -7 9 -23 20 -37 l20 -25 -16 47 c-9
27 -21 51 -27 55 -7 4 -8 0 -4 -11z"/>
        <path d="M1064 707 c3 -10 6 -34 6 -53 0 -21 4 -33 10 -29 15 10 12 59 -6 81
-14 17 -15 17 -10 1z"/>
        <path d="M1174 409 c24 -15 224 -31 261 -20 26 7 20 9 -40 14 -181 16 -240 18
-221 6z"/>
        <path d="M1605 410 l-30 -8 30 -2 c17 -2 37 -3 45 -2 8 1 29 3 47 3 18 1 30 6
27 11 -6 10 -77 9 -119 -2z"/>
        <path d="M1262 347 c-30 -5 -52 -10 -50 -12 6 -6 238 8 238 15 0 9 -125 7
-188 -3z"/>
        <path d="M1630 340 c14 -5 51 -14 83 -20 33 -7 67 -20 78 -31 19 -19 19 -19
19 5 0 28 -7 31 -100 46 -81 12 -117 12 -80 0z"/>
        <path d="M1855 334 l-40 -14 45 6 c25 3 49 9 55 15 13 13 -12 10 -60 -7z"/>
        <path d="M1460 282 c-55 -28 -55 -34 -1 -14 11 4 13 -3 7 -39 -4 -24 -10 -57
-12 -74 -3 -16 -9 -54 -14 -84 -13 -71 -13 -71 9 -71 16 0 21 18 42 145 12 80
26 145 31 145 9 0 20 -40 49 -183 19 -89 26 -107 41 -107 10 0 18 2 18 4 0 3
-21 113 -35 185 -10 52 -27 89 -48 107 -22 19 -22 19 -87 -14z"/>
        <path d="M1808 235 c-7 -11 8 -160 21 -210 5 -19 6 -7 3 35 -9 124 -17 185
-24 175z"/>
        <path d="M1224 90 c0 -52 1 -74 3 -47 2 26 2 68 0 95 -2 26 -3 4 -3 -48z"/>
    </g>
</svg>
